# xmcd
#
# Track frame offsets:
#	150
#	23390
#	48462
#	72390
#	98092
#	117275
#	144865
#	167407
#	187437
#	198917
#
# Disc length: 3096 seconds
#
# Revision: 0
# Processed by: cddbd v1.5.2PL0 Copyright (c) Steve Scherf et al.
# Submitted via: audiograbber 1.83.01
#
DISCID=830c160a
DTITLE=Runrig - The Big Wheel
DYEAR=1991
DGENRE=FolkRock
TTITLE0=Headlights
TTITLE1=Healer In Your Heart
TTITLE2=Abhainn An T-Sluaigh/The Crowded River
TTITLE3=Always The Winner
TTITLE4=This Beautiful Pain
TTITLE5=An Cuibhle Mor/The Big Wheel
TTITLE6=Edge Of The World
TTITLE7=Hearthammer
TTITLE8=I'll Keep Coming Home
TTITLE9=Flower Of The West
EXTD=
EXTT0=
EXTT1=
EXTT2=
EXTT3=
EXTT4=
EXTT5=
EXTT6=
EXTT7=
EXTT8=
EXTT9=
PLAYORDER=
